<svg width="10" height="19" viewBox="0 0 10 19" fill="none" xmlns="http://www.w3.org/2000/svg">
<rect width="10" height="19" fill="#1E1E1E"/>
<g id="Photography Portfolio">
<rect width="1440" height="6158.5" transform="translate(-1245 -6097)" fill="#0E1513"/>
<g id="Footer" clip-path="url(#clip0_1_1263)">
<rect width="1440" height="212" transform="translate(-1245 -150.5)" fill="#0E1513"/>
<g id="Container">
<g id="Copyright">
<path d="M-1175 -33.5H125V-35.5H-1175V-33.5Z" fill="#FC4308" mask="url(#path-1-inside-1_1_1263)"/>
<g id="Column">
<g id="Content">
<g id="Social Links">
<g id="Icon / Facebook">
<path id="Vector" d="M9.5 3.5H6.5C5.9477 3.5 5.5 3.94772 5.5 4.5V7.5H9.5C9.6137 7.49748 9.7216 7.5504 9.7892 7.6419C9.8568 7.7334 9.8758 7.852 9.84 7.96L9.1 10.16C9.0318 10.3619 8.8431 10.4984 8.63 10.5H5.5V18C5.5 18.2761 5.2761 18.5 5 18.5H2.5C2.22386 18.5 2 18.2761 2 18V10.5H0.5C0.22386 10.5 0 10.2761 0 10V8C0 7.7239 0.22386 7.5 0.5 7.5H2V4.5C2 2.29086 3.7909 0.5 6 0.5H9.5C9.7761 0.5 10 0.72386 10 1V3C10 3.27614 9.7761 3.5 9.5 3.5Z" fill="#FC4308"/>
</g>
</g>
</g>
</g>
</g>
</g>
</g>
</g>
<defs>
<clipPath id="clip0_1_1263">
<rect width="1440" height="212" fill="white" transform="translate(-1245 -150.5)"/>
</clipPath>
</defs>
</svg>
