<svg width="18" height="17" viewBox="0 0 18 17" fill="none" xmlns="http://www.w3.org/2000/svg">
<rect width="18" height="17" fill="#1E1E1E"/>
<g id="Photography Portfolio">
<rect width="1440" height="6158.5" transform="translate(-1313 -6098)" fill="#0E1513"/>
<g id="Footer" clip-path="url(#clip0_1_1263)">
<rect width="1440" height="212" transform="translate(-1313 -151.5)" fill="#0E1513"/>
<g id="Container">
<g id="Copyright">
<path d="M-1243 -34.5H57V-36.5H-1243V-34.5Z" fill="#FC4308" mask="url(#path-1-inside-1_1_1263)"/>
<g id="Column">
<g id="Content">
<g id="Social Links">
<g id="Icon / Twitter">
<path id="Vector" d="M17.9737 3.0675C17.5093 3.68702 16.9479 4.22743 16.3112 4.66786C16.3112 4.82969 16.3112 4.99152 16.3112 5.16235C16.3163 8.1012 15.1424 10.9192 13.0527 12.9846C10.9629 15.05 8.13206 16.19 5.19491 16.149C3.49685 16.1547 1.82053 15.767 0.297277 15.0162C0.215137 14.9803 0.162166 14.8991 0.162476 14.8094V14.7105C0.162476 14.5814 0.267087 14.4768 0.396127 14.4768C2.06528 14.4217 3.67488 13.843 4.9972 12.8225C3.48639 12.792 2.12705 11.897 1.50146 10.5208C1.46987 10.4457 1.4797 10.3594 1.52743 10.2933C1.57515 10.2272 1.65386 10.1908 1.73511 10.1972C2.19428 10.2433 2.65804 10.2006 3.10106 10.0713C1.43325 9.7251 0.180067 8.3405 0.000716559 6.6458C-0.00565344 6.5645 0.0307765 6.4858 0.0968565 6.438C0.162926 6.3903 0.249097 6.3804 0.324237 6.4121C0.771797 6.6096 1.25495 6.7136 1.7441 6.7177C0.282696 5.75856 -0.348534 3.93415 0.207406 2.27632C0.264796 2.11523 0.402667 1.99622 0.570356 1.96304C0.738037 1.92985 0.910817 1.98738 1.02518 2.11449C2.99725 4.21335 5.7069 5.46406 8.58276 5.60289C8.50916 5.30895 8.47296 5.00686 8.47496 4.70382C8.50186 3.11482 9.48506 1.69931 10.9643 1.11997C12.4434 0.540639 14.1258 0.91213 15.2239 2.06054C15.9723 1.91795 16.6959 1.66655 17.3716 1.31431C17.4211 1.28341 17.4839 1.28341 17.5334 1.31431C17.5643 1.36383 17.5643 1.42662 17.5334 1.47614C17.2061 2.22562 16.6532 2.85422 15.9518 3.27429C16.566 3.20306 17.1694 3.05817 17.7491 2.84274C17.7979 2.80952 17.862 2.80952 17.9108 2.84274C17.9517 2.86144 17.9823 2.89721 17.9944 2.94052C18.0065 2.98383 17.9989 3.03028 17.9737 3.0675Z" fill="#FC4308"/>
</g>
</g>
</g>
</g>
</g>
</g>
</g>
</g>
<defs>
<clipPath id="clip0_1_1263">
<rect width="1440" height="212" fill="white" transform="translate(-1313 -151.5)"/>
</clipPath>
</defs>
</svg>
